<?xml version="1.0" encoding="utf-8"?>
<svg width="813px" height="557px" viewBox="0 0 813 557" version="1.1" xmlns:xlink="http://www.w3.org/1999/xlink" xmlns="http://www.w3.org/2000/svg">
  <g id="Book">
    <path d="M7.999 0L804.954 0Q805.15 0 805.346 0.00963514Q805.543 0.0192703 805.738 0.0385174Q805.933 0.0577644 806.128 0.0865771Q806.322 0.11539 806.514 0.153699Q806.707 0.192007 806.898 0.23972Q807.088 0.287433 807.276 0.344434Q807.464 0.401436 807.649 0.467589Q807.834 0.533742 808.015 0.608888Q808.196 0.684033 808.374 0.76799Q808.551 0.851946 808.725 0.944512Q808.898 1.03708 809.066 1.13803Q809.235 1.23898 809.398 1.34807Q809.561 1.45717 809.719 1.57414Q809.877 1.69112 810.029 1.81569Q810.18 1.94026 810.326 2.07213Q810.471 2.204 810.61 2.34285Q810.749 2.4817 810.881 2.6272Q811.013 2.7727 811.137 2.92449Q811.262 3.07628 811.379 3.234Q811.496 3.39172 811.605 3.55499Q811.714 3.71826 811.815 3.88669Q811.916 4.05512 812.009 4.2283Q812.101 4.40148 812.185 4.57899Q812.269 4.7565 812.344 4.93791Q812.419 5.11933 812.485 5.30422Q812.552 5.4891 812.609 5.67701Q812.666 5.86492 812.713 6.0554Q812.761 6.24588 812.799 6.43847Q812.838 6.63106 812.866 6.8253Q812.895 7.01954 812.915 7.21496Q812.934 7.41038 812.943 7.60651Q812.953 7.80264 812.953 7.999L812.953 505.936Q812.953 506.132 812.943 506.328Q812.934 506.524 812.915 506.72Q812.895 506.915 812.866 507.109Q812.838 507.304 812.799 507.496Q812.761 507.689 812.713 507.879Q812.666 508.07 812.609 508.258Q812.552 508.446 812.485 508.63Q812.419 508.815 812.344 508.997Q812.269 509.178 812.185 509.356Q812.101 509.533 812.008 509.706Q811.916 509.88 811.815 510.048Q811.714 510.216 811.605 510.38Q811.496 510.543 811.379 510.701Q811.262 510.858 811.137 511.01Q811.013 511.162 810.881 511.307Q810.749 511.453 810.61 511.592Q810.471 511.731 810.326 511.863Q810.18 511.994 810.029 512.119Q809.877 512.244 809.719 512.361Q809.561 512.478 809.398 512.587Q809.235 512.696 809.066 512.797Q808.898 512.898 808.725 512.99Q808.552 513.083 808.374 513.167Q808.196 513.251 808.015 513.326Q807.834 513.401 807.649 513.467Q807.464 513.533 807.276 513.59Q807.088 513.647 806.898 513.695Q806.707 513.743 806.514 513.781Q806.322 513.819 806.128 513.848Q805.933 513.877 805.738 513.896Q805.543 513.915 805.346 513.925Q805.15 513.935 804.954 513.935L7.999 513.935Q7.80264 513.935 7.60651 513.925Q7.41038 513.915 7.21496 513.896Q7.01954 513.877 6.8253 513.848Q6.63106 513.819 6.43847 513.781Q6.24588 513.743 6.0554 513.695Q5.86492 513.647 5.67701 513.59Q5.4891 513.533 5.30422 513.467Q5.11933 513.401 4.93791 513.326Q4.7565 513.251 4.57899 513.167Q4.40148 513.083 4.2283 512.99Q4.05512 512.898 3.88669 512.797Q3.71826 512.696 3.55499 512.587Q3.39172 512.477 3.234 512.361Q3.07628 512.244 2.92449 512.119Q2.7727 511.994 2.6272 511.863Q2.4817 511.731 2.34285 511.592Q2.204 511.453 2.07213 511.307Q1.94026 511.162 1.81569 511.01Q1.69112 510.858 1.57414 510.701Q1.45717 510.543 1.34807 510.38Q1.23898 510.216 1.13803 510.048Q1.03708 509.88 0.944512 509.706Q0.851946 509.533 0.76799 509.356Q0.684033 509.178 0.608888 508.997Q0.533742 508.815 0.467589 508.63Q0.401436 508.446 0.344434 508.258Q0.287433 508.07 0.23972 507.879Q0.192007 507.689 0.153699 507.496Q0.11539 507.304 0.0865771 507.109Q0.0577644 506.915 0.0385174 506.72Q0.0192703 506.524 0.00963514 506.328Q0 506.132 0 505.936L0 7.999Q0 7.80264 0.00963514 7.60651Q0.0192703 7.41038 0.0385174 7.21496Q0.0577644 7.01954 0.0865771 6.8253Q0.11539 6.63106 0.153699 6.43847Q0.192007 6.24588 0.23972 6.0554Q0.287433 5.86492 0.344434 5.67701Q0.401436 5.4891 0.467589 5.30422Q0.533742 5.11933 0.608888 4.93791Q0.684033 4.7565 0.76799 4.57899Q0.851946 4.40148 0.944512 4.2283Q1.03708 4.05512 1.13803 3.88669Q1.23898 3.71826 1.34807 3.55499Q1.45717 3.39172 1.57414 3.234Q1.69112 3.07628 1.81569 2.92449Q1.94026 2.7727 2.07213 2.6272Q2.204 2.4817 2.34285 2.34285Q2.4817 2.204 2.6272 2.07213Q2.7727 1.94026 2.92449 1.81569Q3.07628 1.69112 3.234 1.57414Q3.39172 1.45717 3.55499 1.34807Q3.71826 1.23898 3.88669 1.13803Q4.05512 1.03708 4.2283 0.944512Q4.40148 0.851946 4.57899 0.76799Q4.7565 0.684033 4.93791 0.608888Q5.11933 0.533742 5.30422 0.467589Q5.4891 0.401436 5.67701 0.344434Q5.86492 0.287433 6.0554 0.23972Q6.24588 0.192007 6.43847 0.153699Q6.63106 0.11539 6.8253 0.0865771Q7.01954 0.0577644 7.21496 0.0385174Q7.41038 0.0192703 7.60651 0.00963514Q7.80264 0 7.999 0L7.999 0Z" transform="translate(0 118.62088)" id="Rectangle" fill="#FFF9F9" fill-rule="evenodd" stroke="#DEAA26" stroke-width="24" />
    <path d="M7.999 0L720.914 0Q721.111 0 721.307 0.00963514Q721.503 0.0192703 721.699 0.0385174Q721.894 0.0577644 722.088 0.0865771Q722.282 0.11539 722.475 0.153699Q722.668 0.192007 722.858 0.23972Q723.048 0.287433 723.236 0.344434Q723.424 0.401436 723.609 0.467589Q723.794 0.533742 723.976 0.608888Q724.157 0.684033 724.335 0.76799Q724.512 0.851946 724.685 0.944512Q724.858 1.03708 725.027 1.13803Q725.195 1.23898 725.358 1.34807Q725.522 1.45717 725.679 1.57414Q725.837 1.69112 725.989 1.81569Q726.141 1.94026 726.286 2.07213Q726.432 2.204 726.571 2.34285Q726.71 2.4817 726.841 2.6272Q726.973 2.7727 727.098 2.92449Q727.222 3.07628 727.339 3.234Q727.456 3.39172 727.565 3.55499Q727.674 3.71826 727.775 3.88669Q727.876 4.05512 727.969 4.2283Q728.062 4.40148 728.146 4.57899Q728.229 4.7565 728.305 4.93791Q728.38 5.11933 728.446 5.30422Q728.512 5.4891 728.569 5.67701Q728.626 5.86492 728.674 6.0554Q728.721 6.24588 728.76 6.43847Q728.798 6.63106 728.827 6.8253Q728.856 7.01954 728.875 7.21496Q728.894 7.41038 728.904 7.60651Q728.913 7.80264 728.914 7.999L728.914 503.529Q728.913 503.725 728.904 503.921Q728.894 504.117 728.875 504.313Q728.856 504.508 728.827 504.702Q728.798 504.896 728.76 505.089Q728.721 505.282 728.674 505.472Q728.626 505.663 728.569 505.85Q728.512 506.038 728.446 506.223Q728.38 506.408 728.305 506.59Q728.229 506.771 728.145 506.948Q728.062 507.126 727.969 507.299Q727.876 507.472 727.775 507.641Q727.674 507.809 727.565 507.972Q727.456 508.136 727.339 508.293Q727.222 508.451 727.098 508.603Q726.973 508.755 726.841 508.9Q726.71 509.046 726.571 509.185Q726.432 509.323 726.286 509.455Q726.141 509.587 725.989 509.712Q725.837 509.836 725.679 509.953Q725.522 510.07 725.358 510.179Q725.195 510.288 725.027 510.389Q724.858 510.49 724.685 510.583Q724.512 510.675 724.335 510.759Q724.157 510.843 723.976 510.919Q723.794 510.994 723.609 511.06Q723.424 511.126 723.236 511.183Q723.048 511.24 722.858 511.288Q722.668 511.335 722.475 511.374Q722.282 511.412 722.088 511.441Q721.894 511.47 721.699 511.489Q721.503 511.508 721.307 511.518Q721.111 511.527 720.914 511.527L7.999 511.527Q7.80264 511.527 7.60651 511.518Q7.41038 511.508 7.21496 511.489Q7.01954 511.47 6.8253 511.441Q6.63106 511.412 6.43847 511.374Q6.24588 511.335 6.0554 511.288Q5.86492 511.24 5.67701 511.183Q5.4891 511.126 5.30422 511.06Q5.11933 510.994 4.93791 510.919Q4.7565 510.843 4.57899 510.759Q4.40148 510.675 4.2283 510.583Q4.05512 510.49 3.88669 510.389Q3.71826 510.288 3.55499 510.179Q3.39172 510.07 3.234 509.953Q3.07628 509.836 2.92449 509.712Q2.7727 509.587 2.6272 509.455Q2.4817 509.323 2.34285 509.185Q2.204 509.046 2.07213 508.9Q1.94026 508.755 1.81569 508.603Q1.69112 508.451 1.57414 508.293Q1.45717 508.136 1.34807 507.972Q1.23898 507.809 1.13803 507.641Q1.03708 507.472 0.944512 507.299Q0.851946 507.126 0.76799 506.948Q0.684033 506.771 0.608888 506.59Q0.533742 506.408 0.467589 506.223Q0.401436 506.038 0.344434 505.85Q0.287433 505.663 0.23972 505.472Q0.192007 505.282 0.153699 505.089Q0.11539 504.896 0.0865771 504.702Q0.0577644 504.508 0.0385174 504.313Q0.0192703 504.117 0.00963514 503.921Q0 503.725 0 503.529L0 7.999Q0 7.80264 0.00963514 7.60651Q0.0192703 7.41038 0.0385174 7.21496Q0.0577644 7.01954 0.0865771 6.8253Q0.11539 6.63106 0.153699 6.43847Q0.192007 6.24588 0.23972 6.0554Q0.287433 5.86492 0.344434 5.67701Q0.401436 5.4891 0.467589 5.30422Q0.533742 5.11933 0.608888 4.93791Q0.684033 4.7565 0.76799 4.57899Q0.851946 4.40148 0.944512 4.2283Q1.03708 4.05512 1.13803 3.88669Q1.23898 3.71826 1.34807 3.55499Q1.45717 3.39172 1.57414 3.234Q1.69112 3.07628 1.81569 2.92449Q1.94026 2.7727 2.07213 2.6272Q2.204 2.4817 2.34285 2.34285Q2.4817 2.204 2.6272 2.07213Q2.7727 1.94026 2.92449 1.81569Q3.07628 1.69112 3.234 1.57414Q3.39172 1.45717 3.55499 1.34807Q3.71826 1.23898 3.88669 1.13803Q4.05512 1.03708 4.2283 0.944512Q4.40148 0.851946 4.57899 0.76799Q4.7565 0.684033 4.93791 0.608888Q5.11933 0.533742 5.30422 0.467589Q5.4891 0.401436 5.67701 0.344434Q5.86492 0.287433 6.0554 0.23972Q6.24588 0.192007 6.43847 0.153699Q6.63106 0.11539 6.8253 0.0865771Q7.01954 0.0577644 7.21496 0.0385174Q7.41038 0.0192703 7.60651 0.00963514Q7.80264 0 7.999 0Z" transform="translate(41.788696 78.90228)" id="Rectangle-2" fill="#FFF9F9" fill-rule="evenodd" stroke="#DEAA26" stroke-width="24" />
    <path d="M7.84115 7.20662C30.8021 2.94454 100.412 -7.41947 165.99 8.78572C232.077 25.1165 294.068 68.4298 313.628 82.9981C317.171 85.637 319.982 91.4384 319.982 95.8562L319.982 582.431C319.982 586.849 316.681 589.039 312.576 587.408C291.653 579.094 229.484 555.919 165.99 547.1C102.008 538.214 31.2954 543.907 7.95246 546.24C3.55663 546.679 0 543.519 0 539.101L0 16.7847C0 12.367 3.49763 8.01288 7.84115 7.20662Z" transform="translate(85.995026 0)" id="Rectangle-3" fill="#FFFFFF" fill-rule="evenodd" stroke="#DEAA26" stroke-width="24" />
    <path d="M0 6.24531C0 6.24531 50.929 -7.80665 108.926 6.24531C166.922 20.2973 231.987 62.4532 231.987 62.4532" transform="translate(129.99246 207.68684)" id="New-shape-3" fill="none" fill-rule="evenodd" stroke="#DEAA26" stroke-width="24" stroke-linecap="round" stroke-linejoin="round" stroke-dasharray="112 112" />
    <path d="M0 6.24531C0 6.24531 50.929 -7.80665 108.926 6.24531C166.922 20.2973 231.987 62.4532 231.987 62.4532" transform="translate(129.99246 118.62088)" id="New-shape-4" fill="none" fill-rule="evenodd" stroke="#DEAA26" stroke-width="24" stroke-linecap="round" stroke-linejoin="round" />
    <path d="M0 6.24531C0 6.24531 50.929 -7.80665 108.926 6.24531C166.922 20.2973 231.987 62.4532 231.987 62.4532" transform="translate(129.99246 294.34564)" id="New-shape-5" fill="none" fill-rule="evenodd" stroke="#DEAA26" stroke-width="24" stroke-linecap="round" stroke-linejoin="round" />
    <path d="M0 6.24531C0 6.24531 50.929 -7.80665 108.926 6.24531C166.922 20.2973 231.987 62.4532 231.987 62.4532" transform="translate(129.99246 383.41156)" id="New-shape-6" fill="none" fill-rule="evenodd" stroke="#DEAA26" stroke-width="24" stroke-linecap="round" stroke-linejoin="round" stroke-dasharray="56 56" />
    <path d="M0 1.20359L250.985 1.20359" transform="translate(468.47287 268.94977)" id="Line" fill="none" fill-rule="evenodd" stroke="#DEAA26" stroke-width="24" stroke-linecap="round" />
    <path d="M0 1.20359L250.985 1.20359" transform="translate(468.47287 354.40497)" id="Line-2" fill="none" fill-rule="evenodd" stroke="#DEAA26" stroke-width="24" stroke-linecap="round" />
    <path d="M0 1.20359L250.985 1.20359" transform="translate(468.47287 440.94336)" id="Line-3" fill="none" fill-rule="evenodd" stroke="#DEAA26" stroke-width="24" stroke-linecap="round" />
    <path d="M0 1L69.996 0" transform="translate(649.4624 527.6021)" id="Line-4" fill="none" fill-rule="evenodd" stroke="#DEAA26" stroke-width="24" stroke-linecap="round" />
    <path d="M7.999 0L242.986 0Q243.183 0 243.379 0.00963514Q243.575 0.0192703 243.771 0.0385174Q243.966 0.0577644 244.16 0.0865771Q244.354 0.11539 244.547 0.153699Q244.74 0.192007 244.93 0.23972Q245.121 0.287433 245.308 0.344434Q245.496 0.401436 245.681 0.467589Q245.866 0.533742 246.048 0.608888Q246.229 0.684033 246.406 0.76799Q246.584 0.851946 246.757 0.944512Q246.93 1.03708 247.099 1.13803Q247.267 1.23898 247.43 1.34807Q247.594 1.45717 247.751 1.57414Q247.909 1.69112 248.061 1.81569Q248.213 1.94026 248.358 2.07213Q248.504 2.204 248.643 2.34285Q248.781 2.4817 248.913 2.6272Q249.045 2.7727 249.17 2.92449Q249.294 3.07628 249.411 3.234Q249.528 3.39172 249.637 3.55499Q249.746 3.71826 249.847 3.88669Q249.948 4.05512 250.041 4.2283Q250.134 4.40148 250.217 4.57899Q250.301 4.7565 250.377 4.93791Q250.452 5.11933 250.518 5.30422Q250.584 5.4891 250.641 5.67701Q250.698 5.86492 250.746 6.0554Q250.793 6.24588 250.832 6.43847Q250.87 6.63106 250.899 6.8253Q250.928 7.01954 250.947 7.21496Q250.966 7.41038 250.976 7.60651Q250.985 7.80264 250.985 7.999L250.985 81.067Q250.985 81.2633 250.976 81.4595Q250.966 81.6556 250.947 81.851Q250.928 82.0464 250.899 82.2407Q250.87 82.4349 250.832 82.6275Q250.793 82.8201 250.746 83.0106Q250.698 83.201 250.641 83.3889Q250.584 83.5769 250.518 83.7617Q250.452 83.9466 250.377 84.128Q250.301 84.3095 250.217 84.487Q250.134 84.6645 250.041 84.8377Q249.948 85.0108 249.847 85.1793Q249.747 85.3477 249.637 85.511Q249.528 85.6742 249.411 85.832Q249.294 85.9897 249.17 86.1415Q249.045 86.2933 248.913 86.4388Q248.781 86.5843 248.643 86.7231Q248.504 86.862 248.358 86.9938Q248.213 87.1257 248.061 87.2503Q247.909 87.3748 247.751 87.4918Q247.594 87.6088 247.43 87.7179Q247.267 87.827 247.099 87.9279Q246.93 88.0289 246.757 88.1215Q246.584 88.214 246.406 88.298Q246.229 88.3819 246.048 88.4571Q245.866 88.5322 245.681 88.5984Q245.496 88.6645 245.308 88.7215Q245.121 88.7785 244.93 88.8262Q244.74 88.8739 244.547 88.9123Q244.354 88.9506 244.16 88.9794Q243.966 89.0082 243.771 89.0274Q243.575 89.0467 243.379 89.0563Q243.183 89.066 242.986 89.066L7.999 89.066Q7.80264 89.066 7.60651 89.0563Q7.41038 89.0467 7.21496 89.0274Q7.01954 89.0082 6.8253 88.9794Q6.63106 88.9506 6.43847 88.9123Q6.24588 88.8739 6.0554 88.8262Q5.86492 88.7785 5.67701 88.7215Q5.4891 88.6645 5.30422 88.5984Q5.11933 88.5322 4.93791 88.4571Q4.7565 88.3819 4.57899 88.298Q4.40148 88.214 4.2283 88.1215Q4.05512 88.0289 3.88669 87.9279Q3.71826 87.827 3.55499 87.7179Q3.39172 87.6088 3.234 87.4918Q3.07628 87.3748 2.92449 87.2503Q2.7727 87.1257 2.6272 86.9938Q2.4817 86.862 2.34285 86.7231Q2.204 86.5843 2.07213 86.4388Q1.94026 86.2933 1.81569 86.1415Q1.69112 85.9897 1.57414 85.8319Q1.45717 85.6742 1.34807 85.511Q1.23898 85.3477 1.13803 85.1793Q1.03708 85.0108 0.944512 84.8377Q0.851946 84.6645 0.76799 84.487Q0.684033 84.3095 0.608888 84.128Q0.533742 83.9466 0.467589 83.7617Q0.401436 83.5769 0.344434 83.3889Q0.287433 83.201 0.23972 83.0106Q0.192007 82.8201 0.153699 82.6275Q0.11539 82.4349 0.0865771 82.2407Q0.0577644 82.0464 0.0385174 81.851Q0.0192703 81.6556 0.00963514 81.4594Q0 81.2633 0 81.067L0 7.999Q0 7.80264 0.00963514 7.60651Q0.0192703 7.41038 0.0385174 7.21496Q0.0577644 7.01954 0.0865771 6.8253Q0.11539 6.63106 0.153699 6.43847Q0.192007 6.24588 0.23972 6.0554Q0.287433 5.86492 0.344434 5.67701Q0.401436 5.4891 0.467589 5.30422Q0.533742 5.11933 0.608888 4.93791Q0.684033 4.7565 0.76799 4.57899Q0.851946 4.40148 0.944512 4.2283Q1.03708 4.05512 1.13803 3.88669Q1.23898 3.71826 1.34807 3.55499Q1.45717 3.39172 1.57414 3.234Q1.69112 3.07628 1.81569 2.92449Q1.94026 2.7727 2.07213 2.6272Q2.204 2.4817 2.34285 2.34285Q2.4817 2.204 2.6272 2.07213Q2.7727 1.94026 2.92449 1.81569Q3.07628 1.69112 3.234 1.57414Q3.39172 1.45717 3.55499 1.34807Q3.71826 1.23898 3.88669 1.13803Q4.05512 1.03708 4.2283 0.944512Q4.40148 0.851946 4.57899 0.76799Q4.7565 0.684033 4.93791 0.608888Q5.11933 0.533742 5.30422 0.467589Q5.4891 0.401436 5.67701 0.344434Q5.86492 0.287433 6.0554 0.23972Q6.24588 0.192007 6.43847 0.153699Q6.63106 0.11539 6.8253 0.0865771Q7.01954 0.0577644 7.21496 0.0385174Q7.41038 0.0192703 7.60651 0.00963514Q7.80264 0 7.999 0L7.999 0Z" transform="translate(468.97287 119.70411)" id="Rectangle-4" fill="#FFF6F6" fill-rule="evenodd" stroke="#DEAA26" stroke-width="24" stroke-dasharray="135 135" />
  </g>
</svg>