<?xml version="1.0" encoding="utf-8"?>
<svg width="892px" height="754px" viewBox="0 0 892 754" version="1.1" xmlns:xlink="http://www.w3.org/1999/xlink" xmlns="http://www.w3.org/2000/svg">
  <g id="csv5">
    <g id="CSV" transform="translate(150.83395 104.13257)">
      <path d="M0 29.999L0 516.818Q0 517.554 0.0361351 518.29Q0.0722702 519.025 0.144453 519.758Q0.216636 520.491 0.324694 521.219Q0.432751 521.948 0.576422 522.67Q0.720093 523.392 0.899032 524.107Q1.07797 524.821 1.29175 525.526Q1.50552 526.23 1.75362 526.924Q2.00172 527.617 2.28354 528.298Q2.56536 528.978 2.88022 529.644Q3.19509 530.31 3.54224 530.959Q3.8894 531.608 4.268 532.24Q4.6466 532.872 5.05574 533.484Q5.46488 534.096 5.90358 534.688Q6.34227 535.279 6.80946 535.849Q7.27665 536.418 7.77121 536.964Q8.26577 537.509 8.7865 538.03Q9.30724 538.551 9.8529 539.045Q10.3986 539.54 10.9678 540.007Q11.5371 540.474 12.1286 540.913Q12.7201 541.352 13.3324 541.761Q13.9448 542.17 14.5764 542.549Q15.2081 542.927 15.8576 543.274Q16.507 543.621 17.1728 543.936Q17.8385 544.251 18.5189 544.533Q19.1993 544.815 19.8926 545.063Q20.586 545.311 21.2908 545.525Q21.9955 545.739 22.7098 545.918Q23.4242 546.096 24.1465 546.24Q24.8688 546.384 25.5972 546.492Q26.3257 546.6 27.0586 546.672Q27.7915 546.744 28.527 546.78Q29.2626 546.817 29.999 546.817L446.974 546.817Q447.71 546.817 448.446 546.78Q449.181 546.744 449.914 546.672Q450.647 546.6 451.376 546.492Q452.104 546.384 452.826 546.24Q453.549 546.096 454.263 545.918Q454.977 545.739 455.682 545.525Q456.387 545.311 457.08 545.063Q457.774 544.815 458.454 544.533Q459.134 544.251 459.8 543.936Q460.466 543.621 461.115 543.274Q461.765 542.927 462.396 542.549Q463.028 542.17 463.64 541.761Q464.253 541.352 464.844 540.913Q465.436 540.474 466.005 540.007Q466.574 539.54 467.12 539.045Q467.666 538.551 468.186 538.03Q468.707 537.509 469.202 536.964Q469.696 536.418 470.163 535.849Q470.631 535.279 471.069 534.688Q471.508 534.096 471.917 533.484Q472.326 532.872 472.705 532.24Q473.083 531.608 473.431 530.959Q473.778 530.31 474.093 529.644Q474.407 528.978 474.689 528.298Q474.971 527.617 475.219 526.924Q475.467 526.23 475.681 525.526Q475.895 524.821 476.074 524.107Q476.253 523.392 476.396 522.67Q476.54 521.948 476.648 521.219Q476.756 520.491 476.828 519.758Q476.901 519.025 476.937 518.29Q476.973 517.554 476.973 516.818L476.973 149.876Q476.973 149.109 476.934 148.344Q476.895 147.578 476.816 146.815Q476.738 146.053 476.621 145.295Q476.504 144.537 476.348 143.787Q476.193 143.036 475.999 142.294Q475.805 141.552 475.574 140.821Q475.342 140.09 475.074 139.372Q474.805 138.654 474.501 137.951Q474.196 137.247 473.856 136.56Q473.515 135.873 473.14 135.204Q472.765 134.536 472.357 133.887Q471.948 133.238 471.507 132.611Q471.066 131.984 470.593 131.381Q470.12 130.777 469.617 130.198Q469.114 129.62 468.583 129.067Q468.051 128.515 467.491 127.991L339.622 8.11361Q339.107 7.63062 338.57 7.17241Q338.033 6.7142 337.474 6.28178Q336.916 5.84936 336.338 5.44369Q335.76 5.03802 335.163 4.65999Q334.567 4.28197 333.953 3.93244Q333.34 3.5829 332.71 3.26263Q332.081 2.94235 331.437 2.65205Q330.793 2.36174 330.137 2.10205Q329.48 1.84236 328.812 1.61385Q328.144 1.38535 327.465 1.18854Q326.787 0.991735 326.1 0.827057Q325.414 0.66238 324.72 0.530198Q324.026 0.398016 323.327 0.298622Q322.628 0.199229 321.925 0.132844Q321.222 0.0664586 320.516 0.0332293Q319.811 0 319.105 0L29.999 0Q29.2626 0 28.527 0.0361351Q27.7915 0.0722702 27.0586 0.144453Q26.3257 0.216636 25.5972 0.324694Q24.8688 0.432751 24.1465 0.576422Q23.4242 0.720093 22.7098 0.899032Q21.9955 1.07797 21.2907 1.29175Q20.586 1.50552 19.8926 1.75362Q19.1993 2.00172 18.5189 2.28354Q17.8385 2.56536 17.1728 2.88022Q16.507 3.19509 15.8576 3.54224Q15.2081 3.8894 14.5764 4.268Q13.9448 4.6466 13.3324 5.05574Q12.7201 5.46488 12.1286 5.90358Q11.5371 6.34227 10.9678 6.80946Q10.3986 7.27665 9.8529 7.77121Q9.30724 8.26577 8.7865 8.7865Q8.26577 9.30724 7.77121 9.8529Q7.27665 10.3986 6.80946 10.9678Q6.34227 11.5371 5.90358 12.1286Q5.46488 12.7201 5.05574 13.3324Q4.6466 13.9448 4.268 14.5764Q3.8894 15.2081 3.54224 15.8576Q3.19509 16.507 2.88022 17.1728Q2.56536 17.8385 2.28354 18.5189Q2.00172 19.1993 1.75362 19.8926Q1.50552 20.586 1.29175 21.2908Q1.07797 21.9955 0.899032 22.7098Q0.720093 23.4242 0.576422 24.1465Q0.432751 24.8688 0.324694 25.5972Q0.216636 26.3257 0.144453 27.0586Q0.0722702 27.7915 0.0361351 28.527Q0 29.2626 0 29.999L0 29.999Z" transform="translate(112.311485 0)" id="New-shape" fill="#FFFFFF" fill-rule="evenodd" stroke="#EE6B00" stroke-width="40" stroke-linecap="round" stroke-linejoin="round" />
      <path d="M0 0L0 141.793L142.144 141.793" transform="translate(445.7362 0)" id="New-shape-2" fill="none" fill-rule="evenodd" stroke="#EE6B00" stroke-width="40" stroke-linejoin="round" />
      <path d="M34.999 0L268.242 0Q269.101 0 269.959 0.0421578Q270.818 0.0843156 271.673 0.16853Q272.528 0.252744 273.377 0.378811Q274.227 0.504879 275.07 0.672496Q275.913 0.840113 276.746 1.04888Q277.579 1.25764 278.402 1.50705Q279.224 1.75645 280.033 2.0459Q280.842 2.33535 281.636 2.66414Q282.429 2.99293 283.206 3.36028Q283.983 3.72762 284.74 4.13264Q285.498 4.53765 286.235 4.97936Q286.972 5.42106 287.686 5.89839Q288.401 6.37573 289.091 6.88754Q289.781 7.39935 290.445 7.94441Q291.109 8.48946 291.746 9.06645Q292.383 9.64344 292.99 10.251Q293.598 10.8585 294.175 11.4951Q294.752 12.1317 295.297 12.7959Q295.842 13.46 296.353 14.1501Q296.865 14.8402 297.343 15.5546Q297.82 16.269 298.262 17.0059Q298.703 17.7429 299.108 18.5006Q299.513 19.2583 299.881 20.035Q300.248 20.8117 300.577 21.6055Q300.906 22.3992 301.195 23.2082Q301.485 24.0171 301.734 24.8393Q301.983 25.6615 302.192 26.4949Q302.401 27.3284 302.569 28.171Q302.736 29.0137 302.862 29.8636Q302.988 30.7135 303.072 31.5685Q303.157 32.4235 303.199 33.2817Q303.241 34.1398 303.241 34.999L303.241 122.237Q303.241 123.096 303.199 123.954Q303.157 124.813 303.072 125.668Q302.988 126.523 302.862 127.373Q302.736 128.222 302.569 129.065Q302.401 129.908 302.192 130.741Q301.983 131.575 301.734 132.397Q301.485 133.219 301.195 134.028Q300.906 134.837 300.577 135.631Q300.248 136.424 299.881 137.201Q299.513 137.978 299.108 138.736Q298.703 139.493 298.262 140.23Q297.82 140.967 297.343 141.681Q296.865 142.396 296.353 143.086Q295.842 143.776 295.297 144.44Q294.752 145.104 294.175 145.741Q293.598 146.378 292.99 146.985Q292.383 147.593 291.746 148.17Q291.109 148.747 290.445 149.292Q289.781 149.837 289.091 150.349Q288.401 150.86 287.686 151.338Q286.972 151.815 286.235 152.257Q285.498 152.698 284.74 153.103Q283.983 153.508 283.206 153.876Q282.429 154.243 281.636 154.572Q280.842 154.901 280.033 155.19Q279.224 155.48 278.402 155.729Q277.579 155.978 276.746 156.187Q275.913 156.396 275.07 156.564Q274.227 156.731 273.377 156.857Q272.528 156.983 271.673 157.068Q270.818 157.152 269.959 157.194Q269.101 157.236 268.242 157.236L34.999 157.236Q34.1398 157.236 33.2817 157.194Q32.4235 157.152 31.5685 157.068Q30.7135 156.983 29.8636 156.857Q29.0137 156.731 28.171 156.564Q27.3284 156.396 26.4949 156.187Q25.6615 155.978 24.8393 155.729Q24.0171 155.48 23.2082 155.19Q22.3992 154.901 21.6055 154.572Q20.8117 154.243 20.035 153.876Q19.2583 153.508 18.5006 153.103Q17.7429 152.698 17.0059 152.257Q16.269 151.815 15.5546 151.338Q14.8402 150.86 14.1501 150.349Q13.46 149.837 12.7959 149.292Q12.1317 148.747 11.4951 148.17Q10.8585 147.593 10.251 146.985Q9.64344 146.378 9.06645 145.741Q8.48946 145.104 7.94441 144.44Q7.39935 143.776 6.88754 143.086Q6.37573 142.396 5.89839 141.681Q5.42106 140.967 4.97936 140.23Q4.53765 139.493 4.13264 138.736Q3.72762 137.978 3.36028 137.201Q2.99293 136.424 2.66414 135.631Q2.33535 134.837 2.0459 134.028Q1.75645 133.219 1.50705 132.397Q1.25764 131.575 1.04888 130.741Q0.840113 129.908 0.672496 129.065Q0.504879 128.222 0.378811 127.373Q0.252744 126.523 0.16853 125.668Q0.0843156 124.813 0.0421578 123.954Q0 123.096 0 122.237L0 34.999Q0 34.1398 0.0421578 33.2817Q0.0843156 32.4235 0.16853 31.5685Q0.252744 30.7135 0.378811 29.8636Q0.504879 29.0137 0.672496 28.171Q0.840113 27.3284 1.04888 26.4949Q1.25764 25.6615 1.50705 24.8393Q1.75645 24.0171 2.0459 23.2082Q2.33535 22.3992 2.66414 21.6055Q2.99293 20.8117 3.36028 20.035Q3.72762 19.2583 4.13264 18.5006Q4.53765 17.7429 4.97936 17.0059Q5.42106 16.269 5.89839 15.5546Q6.37573 14.8402 6.88754 14.1501Q7.39935 13.46 7.94441 12.7959Q8.48946 12.1317 9.06645 11.4951Q9.64344 10.8585 10.251 10.251Q10.8585 9.64344 11.4951 9.06645Q12.1317 8.48946 12.7959 7.94441Q13.46 7.39935 14.1501 6.88754Q14.8402 6.37573 15.5546 5.89839Q16.269 5.42106 17.0059 4.97936Q17.7429 4.53765 18.5006 4.13264Q19.2583 3.72762 20.035 3.36028Q20.8117 2.99293 21.6055 2.66414Q22.3992 2.33535 23.2082 2.0459Q24.0171 1.75645 24.8393 1.50705Q25.6615 1.25764 26.4949 1.04888Q27.3284 0.840113 28.171 0.672496Q29.0137 0.504879 29.8636 0.378811Q30.7135 0.252744 31.5685 0.16853Q32.4235 0.0843156 33.2817 0.0421578Q34.1398 0 34.999 0Z" transform="translate(0 264.634)" id="Rectangle" fill="#EE6B00" fill-rule="evenodd" stroke="none" />
      <g id="CSV" fill="#FFFFFF" transform="matrix(1.0000004 4.1307434E-08 -4.1307434E-08 1.0000004 30.885645 284.28848)">
        <path d="M84.1552 49.35L67.1098 49.35Q66.462 44.1 62.8995 40.9977Q59.337 37.8954 53.5757 37.8954Q45.9393 37.8954 41.5927 43.4352Q37.2461 48.975 37.2461 58.9636Q37.2461 69.3613 41.6268 74.6965Q46.0075 80.0318 53.4734 80.0318Q59.0302 80.0318 62.6268 77.2022Q66.2234 74.3727 67.1098 69.3272L84.1552 69.4295Q83.6779 74.0659 81.462 78.5829Q79.2461 83.1 75.3427 86.7647Q71.4393 90.4295 65.8825 92.6284Q60.3257 94.8272 53.1325 94.8272Q43.6552 94.8272 36.1723 90.6511Q28.6893 86.475 24.3598 78.4636Q20.0302 70.4522 20.0302 58.9636Q20.0302 47.4068 24.4279 39.4125Q28.8257 31.4181 36.3257 27.259Q43.8257 23.1 53.1325 23.1Q61.587 23.1 68.2688 26.1852Q74.9507 29.2704 79.1268 35.134Q83.3029 40.9977 84.1552 49.35ZM131.507 44.9863Q131.167 41.2363 128.49 39.1397Q125.814 37.0431 120.871 37.0431Q115.962 37.0431 113.507 38.9011Q111.053 40.759 111.019 43.6227Q110.917 46.725 113.712 48.4806Q116.507 50.2363 121.246 51.259L127.246 52.6227Q137.576 54.9068 143.081 60.0886Q148.587 65.2704 148.621 73.6227Q148.587 83.5772 141.257 89.1681Q133.928 94.759 120.871 94.759Q107.712 94.759 99.82 88.8102Q91.9279 82.8613 91.7575 70.6227L107.917 70.6227Q108.189 75.6681 111.632 78.242Q115.076 80.8159 120.667 80.8159Q125.746 80.8159 128.61 78.8045Q131.473 76.7931 131.507 73.5886Q131.473 70.6568 128.78 68.9011Q126.087 67.1454 120.326 65.8159L113.03 64.1113Q103.996 62.0318 98.7632 57.3784Q93.5302 52.725 93.5643 44.7818Q93.5302 38.2704 97.0416 33.3954Q100.553 28.5204 106.74 25.8102Q112.928 23.1 120.905 23.1Q129.019 23.1 135.002 25.8443Q140.985 28.5886 144.292 33.5147Q147.598 38.4409 147.667 44.9863L131.507 44.9863ZM188.644 75.1909L173.03 24.0545L154.144 24.0545L177.701 93.8727L200.167 93.8727L223.723 24.0545L204.837 24.0545L189.223 75.1909L188.644 75.1909Z" />
      </g>
    </g>
    <path d="M0 0L892 0L892 754L0 754L0 0Z" id="Rectangle" fill="#D3D3D3" fill-opacity="0" fill-rule="evenodd" stroke="none" />
  </g>
</svg>