<?xml version="1.0" encoding="utf-8"?>
<svg width="789px" height="789px" viewBox="0 0 789 789" version="1.1" xmlns:xlink="http://www.w3.org/1999/xlink" xmlns="http://www.w3.org/2000/svg">
  <g id="Info6" transform="translate(9 9)">
    <path d="M63.9446 0L63.9471 0C64.9936 0 66.0395 0.0256746 67.0847 0.0770237C68.1299 0.128373 69.1733 0.205321 70.2148 0.307905C71.2562 0.41049 72.2945 0.53856 73.3297 0.692115C74.3649 0.84567 75.3957 1.02452 76.4221 1.22867C77.4484 1.43285 78.4692 1.66207 79.4843 1.91635C80.4995 2.1706 81.5078 2.44965 82.5093 2.75343C83.5107 3.0572 84.504 3.38537 85.4893 3.73792C86.4747 4.09051 87.4507 4.46703 88.4176 4.86749C89.3844 5.26798 90.3408 5.69192 91.2869 6.13936C92.2329 6.58681 93.1674 7.05717 94.0904 7.55048C95.0133 8.04383 95.9235 8.55948 96.8211 9.09751C97.7188 9.6355 98.6027 10.1952 99.4728 10.7766C100.343 11.358 101.198 11.9604 102.039 12.5838C102.879 13.2073 103.704 13.8509 104.513 14.5147C105.322 15.1787 106.114 15.862 106.89 16.5648C107.665 17.2676 108.423 17.989 109.163 18.729C109.903 19.4689 110.624 20.2266 111.327 21.0021C112.03 21.7775 112.713 22.5696 113.377 23.3786C114.041 24.1875 114.684 25.0123 115.308 25.8529C115.931 26.6934 116.534 27.5487 117.115 28.4188C117.696 29.289 118.256 30.1729 118.794 31.0705C119.332 31.9681 119.848 32.8784 120.341 33.8013C120.835 34.7243 121.305 35.6588 121.752 36.6048C122.2 37.5508 122.624 38.5072 123.024 39.474C123.425 40.4409 123.801 41.417 124.153 42.4023C124.506 43.3877 124.835 44.381 125.138 45.3824C125.442 46.3839 125.721 47.3922 125.975 48.4074C126.23 49.4225 126.459 50.4432 126.663 51.4696C126.867 52.496 127.046 53.5268 127.2 54.5619C127.353 55.5971 127.482 56.6354 127.584 57.6769C127.687 58.7183 127.764 59.7617 127.815 60.8069C127.866 61.8522 127.892 62.8981 127.892 63.9446L127.892 300.861C127.892 301.907 127.866 302.953 127.815 303.999C127.764 305.044 127.687 306.088 127.584 307.128C127.482 308.17 127.353 309.208 127.2 310.244C127.046 311.279 126.867 312.31 126.663 313.336C126.459 314.363 126.23 315.384 125.975 316.399C125.721 317.414 125.442 318.422 125.138 319.424C124.835 320.425 124.506 321.418 124.153 322.403C123.801 323.388 123.425 324.365 123.024 325.332C122.624 326.299 122.2 327.255 121.752 328.2C121.305 329.147 120.835 330.082 120.341 331.005C119.848 331.927 119.332 332.837 118.794 333.735C118.256 334.632 117.696 335.516 117.115 336.386C116.534 337.257 115.931 338.112 115.308 338.953C114.684 339.793 114.041 340.618 113.377 341.427C112.713 342.236 112.03 343.028 111.327 343.803C110.624 344.579 109.903 345.337 109.163 346.076C108.423 346.817 107.665 347.538 106.89 348.24C106.114 348.944 105.322 349.627 104.513 350.29C103.704 350.955 102.879 351.599 102.039 352.222C101.198 352.845 100.343 353.447 99.4728 354.029C98.6027 354.611 97.7188 355.17 96.8211 355.708C95.9235 356.246 95.0133 356.762 94.0904 357.255C93.1674 357.748 92.2329 358.219 91.2869 358.666C90.3408 359.114 89.3844 359.538 88.4176 359.938C87.4507 360.338 86.4747 360.715 85.4893 361.067C84.504 361.42 83.5107 361.749 82.5093 362.052C81.5078 362.356 80.4995 362.635 79.4843 362.889C78.4692 363.144 77.4484 363.373 76.4221 363.577C75.3957 363.781 74.3649 363.96 73.3297 364.113C72.2945 364.267 71.2562 364.396 70.2148 364.498C69.1733 364.601 68.1299 364.678 67.0847 364.729C66.0395 364.78 64.9936 364.806 63.9471 364.806L63.9446 364.806C62.8981 364.806 61.8522 364.78 60.807 364.729C59.7617 364.678 58.7184 364.601 57.6769 364.498C56.6355 364.396 55.5972 364.267 54.562 364.113C53.5268 363.96 52.496 363.781 51.4696 363.577C50.4432 363.373 49.4225 363.144 48.4073 362.889C47.3922 362.635 46.3839 362.356 45.3824 362.052C44.381 361.749 43.3877 361.42 42.4024 361.067C41.417 360.715 40.4409 360.338 39.4741 359.938C38.5072 359.538 37.5508 359.114 36.6048 358.666C35.6588 358.219 34.7243 357.748 33.8013 357.255C32.8784 356.762 31.9681 356.246 31.0704 355.708C30.1729 355.17 29.289 354.611 28.4188 354.029C27.5487 353.447 26.6934 352.845 25.8529 352.222C25.0123 351.599 24.1875 350.955 23.3786 350.292C22.5696 349.627 21.7775 348.944 21.0021 348.24C20.2266 347.538 19.4689 346.817 18.729 346.076C17.989 345.337 17.2676 344.579 16.5648 343.803C15.862 343.028 15.1787 342.236 14.5147 341.427C13.8509 340.618 13.2072 339.793 12.5838 338.953C11.9604 338.112 11.358 337.257 10.7766 336.386C10.1952 335.516 9.6355 334.632 9.09751 333.735C8.55948 332.837 8.04383 331.927 7.55048 331.005C7.05718 330.082 6.58682 329.147 6.13937 328.2C5.69192 327.255 5.26798 326.299 4.86749 325.332C4.46704 324.365 4.09051 323.388 3.73792 322.403C3.38537 321.418 3.05721 320.425 2.75343 319.424C2.44965 318.422 2.1706 317.414 1.91635 316.399C1.66207 315.384 1.43285 314.363 1.22867 313.336C1.02452 312.31 0.84567 311.279 0.692115 310.244C0.53856 309.208 0.41049 308.17 0.307906 307.128C0.205321 306.088 0.128373 305.044 0.0770237 303.999C0.0256746 302.953 0 301.907 0 300.861L0 63.9446C0 62.8981 0.0256746 61.8522 0.0770237 60.8069C0.128373 59.7617 0.205321 58.7183 0.307906 57.6769C0.41049 56.6354 0.53856 55.5971 0.692115 54.5619C0.84567 53.5268 1.02452 52.496 1.22867 51.4696C1.43285 50.4432 1.66207 49.4224 1.91635 48.4072C2.1706 47.3921 2.44965 46.3839 2.75343 45.3824C3.05721 44.381 3.38537 43.3877 3.73792 42.4023C4.09051 41.417 4.46704 40.4409 4.86749 39.474C5.26798 38.5072 5.69192 37.5508 6.13937 36.6048C6.58682 35.6588 7.05718 34.7243 7.55048 33.8013C8.04383 32.8784 8.55948 31.9681 9.09751 31.0704C9.6355 30.1729 10.1952 29.289 10.7766 28.4188C11.358 27.5487 11.9604 26.6934 12.5838 25.8529C13.2072 25.0123 13.8509 24.1875 14.5147 23.3786C15.1787 22.5696 15.862 21.7775 16.5648 21.0021C17.2676 20.2266 17.989 19.4689 18.729 18.729C19.4689 17.989 20.2266 17.2676 21.0021 16.5648C21.7775 15.862 22.5696 15.1787 23.3786 14.5147C24.1875 13.8509 25.0123 13.2073 25.8529 12.5838C26.6934 11.9604 27.5487 11.358 28.4188 10.7766C29.289 10.1952 30.1729 9.6355 31.0706 9.09751C31.9681 8.55948 32.8784 8.04383 33.8013 7.55048C34.7243 7.05717 35.6588 6.58681 36.6048 6.13936C37.5508 5.69192 38.5072 5.26798 39.4741 4.86749C40.4409 4.46703 41.417 4.09051 42.4024 3.73792C43.3877 3.38537 44.381 3.0572 45.3824 2.75343C46.3839 2.44965 47.3922 2.1706 48.4074 1.91635C49.4225 1.66207 50.4432 1.43285 51.4696 1.22867C52.496 1.02452 53.5268 0.84567 54.562 0.692115C55.5972 0.53856 56.6355 0.41049 57.6769 0.307905C58.7184 0.205321 59.7617 0.128373 60.807 0.0770237C61.8522 0.0256746 62.8981 0 63.9446 0L63.9446 0Z" transform="translate(322.0163 302.1374)" id="Rectangle" fill="#FFFDFD" fill-rule="evenodd" stroke="#62B9FF" stroke-width="18" />
    <path d="M59.0526 0L68.8391 0C69.8055 0 70.7714 0.0237054 71.7367 0.0711352C72.7019 0.118546 73.6655 0.189624 74.6273 0.284351C75.589 0.379079 76.5479 0.497341 77.5038 0.639157C78.4599 0.780954 79.4119 0.946134 80.3597 1.13468C81.3075 1.32322 82.2502 1.53491 83.1878 1.76973C84.1252 2.00457 85.0563 2.26224 85.9812 2.54279C86.906 2.82333 87.8233 3.12639 88.7333 3.45196C89.6432 3.77755 90.5446 4.12527 91.4375 4.49511C92.3304 4.86495 93.2137 5.25647 94.0873 5.66967C94.961 6.08288 95.824 6.51727 96.6763 6.97284C97.5286 7.42843 98.3692 7.90464 99.1982 8.40149C100.027 8.89834 100.843 9.41522 101.647 9.95215C102.451 10.4891 103.24 11.0454 104.017 11.6211C104.793 12.1968 105.555 12.7912 106.302 13.4043C107.049 14.0174 107.78 14.6485 108.496 15.2975C109.212 15.9465 109.912 16.6127 110.596 17.2961C111.279 17.9795 111.945 18.6792 112.594 19.3953C113.243 20.1113 113.874 20.8429 114.487 21.59C115.1 22.3371 115.695 23.0988 116.27 23.8751C116.846 24.6512 117.403 25.4411 117.939 26.2447C118.476 27.0483 118.993 27.8645 119.49 28.6934C119.987 29.5224 120.463 30.3631 120.919 31.2154C121.374 32.0677 121.809 32.9306 122.222 33.8043C122.635 34.678 123.027 35.5612 123.396 36.4542C123.766 37.347 124.114 38.2484 124.44 39.1584C124.765 40.0683 125.068 40.9857 125.349 41.9105C125.63 42.8353 125.887 43.7665 126.122 44.7039C126.357 45.6414 126.568 46.5841 126.757 47.532C126.945 48.4798 127.111 49.4318 127.253 50.3878C127.394 51.3438 127.513 52.3026 127.608 53.2644C127.702 54.2262 127.773 55.1897 127.82 56.155C127.868 57.1203 127.892 58.0862 127.892 59.0526L127.892 59.0551C127.892 60.0215 127.868 60.9873 127.82 61.9526C127.773 62.9179 127.702 63.8814 127.608 64.8432C127.513 65.805 127.394 66.7638 127.253 67.7198C127.111 68.6758 126.945 69.6278 126.757 70.5756C126.568 71.5235 126.357 72.4661 126.122 73.4037C125.887 74.3411 125.63 75.2722 125.349 76.1971C125.068 77.1219 124.765 78.0392 124.44 78.9492C124.114 79.8592 123.766 80.7606 123.396 81.6534C123.027 82.5463 122.635 83.4296 122.222 84.3033C121.809 85.1769 121.374 86.0399 120.919 86.8922C120.463 87.7445 119.987 88.5852 119.49 89.4141C118.993 90.243 118.476 91.0593 117.939 91.8629C117.403 92.6664 116.846 93.4563 116.27 94.2325C115.695 95.0088 115.1 95.7705 114.487 96.5176C113.874 97.2646 113.243 97.9962 112.594 98.7123C111.945 99.4283 111.279 100.128 110.596 100.811C109.912 101.495 109.212 102.161 108.496 102.81C107.78 103.459 107.049 104.09 106.302 104.703C105.555 105.316 104.793 105.911 104.017 106.487C103.24 107.062 102.451 107.618 101.647 108.155C100.843 108.692 100.027 109.209 99.1982 109.706C98.3692 110.203 97.5286 110.679 96.6763 111.135C95.824 111.59 94.961 112.025 94.0873 112.438C93.2137 112.851 92.3304 113.243 91.4375 113.612C90.5446 113.982 89.6432 114.33 88.7333 114.656C87.8233 114.981 86.906 115.284 85.9812 115.565C85.0563 115.845 84.1252 116.103 83.1878 116.338C82.2502 116.573 81.3075 116.784 80.3597 116.973C79.4119 117.161 78.4599 117.327 77.5038 117.468C76.5479 117.61 75.589 117.728 74.6273 117.823C73.6655 117.918 72.7019 117.989 71.7367 118.036C70.7714 118.084 69.8055 118.108 68.8391 118.108L59.0526 118.108C58.0861 118.108 57.1203 118.084 56.1549 118.036C55.1897 117.989 54.2262 117.918 53.2644 117.823C52.3026 117.728 51.3438 117.61 50.3878 117.468C49.4318 117.327 48.4798 117.161 47.532 116.973C46.5841 116.784 45.6414 116.573 44.7039 116.338C43.7665 116.103 42.8353 115.845 41.9105 115.565C40.9857 115.284 40.0683 114.981 39.1584 114.656C38.2484 114.33 37.347 113.982 36.4542 113.612C35.5612 113.243 34.6779 112.851 33.8043 112.438C32.9307 112.025 32.0677 111.59 31.2154 111.135C30.3631 110.679 29.5224 110.203 28.6935 109.706C27.8646 109.209 27.0483 108.692 26.2447 108.155C25.4411 107.618 24.6513 107.062 23.875 106.487C23.0988 105.911 22.3371 105.316 21.59 104.703C20.8429 104.09 20.1113 103.459 19.3953 102.81C18.6792 102.161 17.9795 101.495 17.2961 100.811C16.6127 100.128 15.9465 99.4283 15.2975 98.7123C14.6485 97.9962 14.0174 97.2646 13.4043 96.5176C12.7912 95.7705 12.1968 95.0088 11.6211 94.2325C11.0454 93.4563 10.4891 92.6664 9.95215 91.8629C9.41522 91.0593 8.89836 90.243 8.40149 89.4141C7.90462 88.5852 7.42843 87.7445 6.97284 86.8922C6.51729 86.0399 6.08287 85.1769 5.66969 84.3033C5.25647 83.4296 4.86495 82.5463 4.49509 81.6534C4.12527 80.7606 3.77757 79.8592 3.45198 78.9492C3.12639 78.0392 2.82333 77.1219 2.5428 76.1971C2.26224 75.2722 2.00455 74.3411 1.76973 73.4037C1.53491 72.4661 1.32322 71.5235 1.13468 70.5756C0.946134 69.6278 0.780954 68.6758 0.639138 67.7198C0.49736 66.7638 0.379098 65.805 0.284352 64.8432C0.189643 63.8814 0.118565 62.9179 0.0711163 61.9526C0.0237054 60.9873 0 60.0215 0 59.0551L0 59.0526C0 58.0862 0.0237054 57.1203 0.0711163 56.155C0.118565 55.1897 0.189643 54.2262 0.284352 53.2644C0.379098 52.3026 0.49736 51.3438 0.639138 50.3878C0.780954 49.4318 0.946134 48.4798 1.13468 47.532C1.32322 46.5841 1.53491 45.6414 1.76973 44.7039C2.00455 43.7665 2.26224 42.8353 2.5428 41.9105C2.82333 40.9857 3.12639 40.0683 3.45198 39.1584C3.77757 38.2484 4.12527 37.347 4.49509 36.4542C4.86495 35.5612 5.25647 34.678 5.66969 33.8043C6.08287 32.9306 6.51729 32.0677 6.97284 31.2154C7.42843 30.3631 7.90462 29.5224 8.40149 28.6934C8.89836 27.8645 9.41522 27.0483 9.95215 26.2447C10.4891 25.4411 11.0454 24.6512 11.6211 23.8751C12.1968 23.0988 12.7912 22.3371 13.4043 21.59C14.0174 20.8429 14.6485 20.1113 15.2975 19.3953C15.9465 18.6792 16.6127 17.9795 17.2961 17.2961C17.9795 16.6127 18.6792 15.9465 19.3953 15.2975C20.1113 14.6485 20.8429 14.0174 21.59 13.4043C22.3371 12.7912 23.0988 12.1968 23.875 11.6211C24.6513 11.0454 25.4411 10.4891 26.2447 9.95215C27.0483 9.41522 27.8646 8.89834 28.6935 8.40149C29.5224 7.90464 30.3631 7.42843 31.2154 6.97284C32.0677 6.51727 32.9307 6.08288 33.8043 5.66967C34.6779 5.25647 35.5612 4.86495 36.4542 4.49511C37.347 4.12527 38.2484 3.77755 39.1584 3.45196C40.0683 3.12639 40.9857 2.82333 41.9105 2.54279C42.8353 2.26224 43.7665 2.00457 44.7039 1.76973C45.6414 1.53491 46.5841 1.32322 47.532 1.13468C48.4798 0.946134 49.4318 0.780954 50.3878 0.639157C51.3438 0.497341 52.3026 0.379079 53.2644 0.284351C54.2262 0.189624 55.1897 0.118546 56.1549 0.0711352C57.1203 0.0237054 58.0861 0 59.0526 0L59.0526 0Z" transform="translate(322.0283 160.75021)" id="Rectangle-2" fill="#FFFDFD" fill-rule="evenodd" stroke="#62B9FF" stroke-width="16" />
    <path d="M0 17.9268C0 8.02608 8.02608 0 17.9268 0C27.8274 0 35.8535 8.02608 35.8535 17.9268C35.8535 27.8274 27.8274 35.8535 17.9268 35.8535C8.02608 35.8535 0 27.8274 0 17.9268L0 17.9268Z" transform="translate(432.8872 125.584015)" id="Ellipse" fill="#FFFFFF" fill-rule="evenodd" stroke="#62B9FF" stroke-width="11" />
    <path d="M9.35847 0L761.641 0C761.794 0 761.947 0.00375756 762.1 0.0112727C762.254 0.0187878 762.407 0.0300514 762.559 0.0450636C762.711 0.0600757 762.863 0.0788182 763.015 0.101291C763.166 0.123764 763.317 0.149941 763.468 0.179821C763.618 0.2097 763.767 0.243247 763.916 0.280461C764.064 0.317676 764.212 0.358513 764.358 0.402972C764.505 0.447432 764.65 0.495461 764.795 0.547058C764.939 0.598655 765.082 0.65376 765.223 0.712371C765.364 0.770982 765.504 0.833029 765.643 0.898513C765.781 0.963996 765.918 1.03284 766.053 1.10504C766.188 1.17724 766.321 1.25271 766.452 1.33144C766.584 1.41018 766.714 1.49209 766.841 1.57718C766.968 1.66228 767.093 1.75044 767.216 1.84167C767.34 1.93291 767.461 2.02711 767.579 2.12427C767.697 2.22144 767.813 2.32144 767.927 2.4243C768.04 2.52715 768.15 2.63273 768.259 2.74103C768.367 2.84933 768.473 2.96022 768.576 3.0737C768.679 3.18719 768.779 3.30313 768.875 3.42152C768.973 3.53991 769.067 3.66062 769.159 3.78363C769.25 3.90665 769.338 4.03183 769.423 4.15918C769.508 4.28652 769.59 4.41588 769.669 4.54725C769.747 4.67862 769.823 4.81184 769.894 4.94692C769.967 5.08199 770.036 5.21876 770.102 5.35721C770.167 5.49566 770.229 5.63564 770.287 5.77713C770.346 5.91863 770.401 6.06149 770.452 6.2057C770.505 6.3499 770.553 6.49528 770.598 6.64184C770.642 6.78841 770.683 6.93597 770.719 7.08454C770.757 7.23311 770.79 7.3825 770.82 7.53272C770.85 7.68293 770.876 7.83379 770.898 7.98529C770.921 8.13679 770.94 8.28875 770.956 8.44117C770.97 8.5936 770.981 8.74629 770.988 8.89927C770.996 9.05225 771 9.20531 771 9.35847L771 761.641C771 761.794 770.996 761.947 770.988 762.1C770.981 762.254 770.97 762.407 770.956 762.559C770.94 762.711 770.921 762.863 770.898 763.015C770.876 763.166 770.85 763.317 770.82 763.468C770.79 763.618 770.757 763.767 770.719 763.916C770.683 764.064 770.642 764.212 770.598 764.358C770.553 764.505 770.505 764.65 770.452 764.795C770.401 764.939 770.346 765.082 770.287 765.223C770.229 765.364 770.167 765.504 770.102 765.643C770.036 765.781 769.967 765.918 769.894 766.053C769.823 766.188 769.747 766.321 769.669 766.452C769.59 766.584 769.508 766.714 769.423 766.841C769.338 766.968 769.25 767.093 769.159 767.216C769.067 767.34 768.973 767.461 768.875 767.579C768.779 767.697 768.679 767.813 768.576 767.927C768.473 768.04 768.367 768.15 768.259 768.259C768.15 768.367 768.04 768.473 767.927 768.576C767.813 768.679 767.697 768.779 767.579 768.875C767.461 768.973 767.34 769.067 767.216 769.159C767.093 769.25 766.968 769.338 766.841 769.423C766.714 769.508 766.584 769.59 766.452 769.669C766.321 769.747 766.188 769.823 766.053 769.894C765.918 769.967 765.781 770.036 765.643 770.102C765.504 770.167 765.364 770.229 765.223 770.287C765.082 770.346 764.939 770.401 764.795 770.452C764.65 770.505 764.505 770.553 764.358 770.598C764.212 770.642 764.064 770.683 763.916 770.719C763.767 770.757 763.618 770.79 763.468 770.82C763.317 770.85 763.166 770.876 763.015 770.898C762.863 770.921 762.711 770.94 762.559 770.956C762.407 770.97 762.254 770.981 762.1 770.988C761.947 770.996 761.794 771 761.641 771L9.35847 771C9.20531 771 9.05225 770.996 8.89927 770.988C8.74629 770.981 8.5936 770.97 8.44117 770.956C8.28875 770.94 8.13679 770.921 7.98529 770.898C7.83379 770.876 7.68293 770.85 7.53272 770.82C7.3825 770.79 7.23311 770.757 7.08454 770.719C6.93597 770.683 6.78841 770.642 6.64184 770.598C6.49528 770.553 6.3499 770.505 6.2057 770.452C6.06149 770.401 5.91863 770.346 5.77713 770.287C5.63564 770.229 5.49566 770.167 5.35721 770.102C5.21876 770.036 5.08199 769.967 4.94692 769.894C4.81184 769.823 4.67862 769.747 4.54725 769.669C4.41588 769.59 4.28652 769.508 4.15918 769.423C4.03183 769.338 3.90665 769.25 3.78363 769.159C3.66062 769.067 3.53991 768.973 3.42152 768.875C3.30313 768.779 3.18719 768.679 3.0737 768.576C2.96022 768.473 2.84933 768.367 2.74103 768.259C2.63273 768.15 2.52715 768.04 2.4243 767.927C2.32144 767.813 2.22144 767.697 2.12427 767.579C2.02711 767.461 1.93291 767.34 1.84167 767.216C1.75044 767.093 1.66228 766.968 1.57718 766.841C1.49209 766.714 1.41018 766.584 1.33144 766.452C1.25271 766.321 1.17724 766.188 1.10504 766.053C1.03284 765.918 0.963996 765.781 0.898513 765.643C0.833029 765.504 0.770982 765.364 0.712371 765.223C0.65376 765.082 0.598655 764.939 0.547058 764.795C0.495461 764.65 0.447432 764.505 0.402972 764.358C0.358513 764.212 0.317676 764.064 0.280461 763.916C0.243247 763.767 0.2097 763.618 0.179821 763.468C0.149941 763.317 0.123764 763.166 0.101291 763.015C0.0788182 762.863 0.0600757 762.711 0.0450636 762.559C0.0300514 762.407 0.0187878 762.254 0.0112727 762.1C0.00375756 761.947 0 761.794 0 761.641L0 9.35847C0 9.20531 0.00375756 9.05225 0.0112727 8.89927C0.0187878 8.74629 0.0300514 8.5936 0.0450636 8.44117C0.0600757 8.28875 0.0788182 8.13679 0.101291 7.98529C0.123764 7.83379 0.149941 7.68293 0.179821 7.53272C0.2097 7.3825 0.243247 7.23311 0.280461 7.08454C0.317676 6.93597 0.358513 6.78841 0.402972 6.64184C0.447432 6.49528 0.495461 6.3499 0.547058 6.2057C0.598655 6.06149 0.65376 5.91863 0.712371 5.77713C0.770982 5.63564 0.833029 5.49566 0.898513 5.35721C0.963996 5.21876 1.03284 5.08199 1.10504 4.94692C1.17724 4.81184 1.25271 4.67862 1.33144 4.54725C1.41018 4.41588 1.49209 4.28652 1.57718 4.15918C1.66228 4.03183 1.75044 3.90665 1.84167 3.78363C1.93291 3.66062 2.02711 3.53991 2.12427 3.42152C2.22144 3.30313 2.32144 3.18719 2.4243 3.0737C2.52715 2.96022 2.63273 2.84933 2.74103 2.74103C2.84933 2.63273 2.96022 2.52715 3.0737 2.4243C3.18719 2.32144 3.30313 2.22144 3.42152 2.12427C3.53991 2.02711 3.66062 1.93291 3.78363 1.84167C3.90665 1.75044 4.03183 1.66228 4.15918 1.57718C4.28652 1.49209 4.41588 1.41018 4.54725 1.33144C4.67862 1.25271 4.81184 1.17724 4.94692 1.10504C5.08199 1.03284 5.21876 0.963996 5.35721 0.898513C5.49566 0.833029 5.63564 0.770982 5.77713 0.712371C5.91863 0.65376 6.06149 0.598655 6.2057 0.547058C6.3499 0.495461 6.49528 0.447432 6.64184 0.402972C6.78841 0.358513 6.93597 0.317676 7.08454 0.280461C7.23311 0.243247 7.3825 0.2097 7.53272 0.179821C7.68293 0.149941 7.83379 0.123764 7.98529 0.101291C8.13679 0.0788182 8.28875 0.0600757 8.44117 0.0450636C8.5936 0.0300514 8.74629 0.0187878 8.89927 0.0112727C9.05225 0.00375756 9.20531 0 9.35847 0L9.35847 0L9.35847 0Z" id="Rectangle-3" fill="#D3D3D3" fill-opacity="0" fill-rule="evenodd" stroke="none" />
  </g>
</svg>