<?xml version="1.0" encoding="utf-8"?>
<svg width="262px" height="245px" viewBox="0 0 262 245" version="1.1" xmlns:xlink="http://www.w3.org/1999/xlink" xmlns="http://www.w3.org/2000/svg">
  <g id="letter">
    <path d="M4.999 0L241.817 0Q241.94 0 242.062 0.00602151Q242.185 0.012043 242.307 0.0240715Q242.429 0.0361001 242.55 0.0541066Q242.672 0.0721132 242.792 0.0960544Q242.912 0.119996 243.031 0.149814Q243.151 0.179632 243.268 0.215255Q243.385 0.250879 243.501 0.292221Q243.617 0.333564 243.73 0.380526Q243.843 0.427489 243.954 0.479957Q244.065 0.532426 244.173 0.590276Q244.282 0.648125 244.387 0.711215Q244.492 0.774305 244.594 0.842483Q244.696 0.910662 244.795 0.983765Q244.893 1.05687 244.988 1.13472Q245.083 1.21257 245.174 1.29499Q245.265 1.3774 245.352 1.46417Q245.438 1.55095 245.521 1.64188Q245.603 1.73281 245.681 1.82767Q245.759 1.92253 245.832 2.0211Q245.905 2.11967 245.973 2.2217Q246.042 2.32374 246.105 2.429Q246.168 2.53426 246.226 2.64249Q246.283 2.75072 246.336 2.86165Q246.388 2.97259 246.435 3.08597Q246.482 3.19934 246.524 3.31489Q246.565 3.43043 246.601 3.54787Q246.636 3.6653 246.666 3.78434Q246.696 3.90338 246.72 4.02374Q246.744 4.1441 246.762 4.26549Q246.78 4.38688 246.792 4.50901Q246.804 4.63114 246.81 4.75371Q246.816 4.87628 246.816 4.999L246.816 131.702Q246.816 131.824 246.81 131.947Q246.804 132.07 246.792 132.192Q246.78 132.314 246.762 132.435Q246.744 132.557 246.72 132.677Q246.696 132.797 246.666 132.916Q246.636 133.035 246.601 133.153Q246.565 133.27 246.524 133.386Q246.482 133.501 246.435 133.615Q246.388 133.728 246.336 133.839Q246.283 133.95 246.226 134.058Q246.168 134.166 246.105 134.272Q246.042 134.377 245.973 134.479Q245.905 134.581 245.832 134.68Q245.759 134.778 245.681 134.873Q245.603 134.968 245.521 135.059Q245.438 135.15 245.352 135.237Q245.265 135.323 245.174 135.406Q245.083 135.488 244.988 135.566Q244.893 135.644 244.795 135.717Q244.696 135.79 244.594 135.858Q244.492 135.926 244.387 135.99Q244.282 136.053 244.173 136.11Q244.065 136.168 243.954 136.221Q243.843 136.273 243.73 136.32Q243.617 136.367 243.501 136.409Q243.385 136.45 243.268 136.485Q243.151 136.521 243.032 136.551Q242.912 136.581 242.792 136.605Q242.672 136.629 242.55 136.647Q242.429 136.665 242.307 136.677Q242.185 136.689 242.062 136.695Q241.94 136.701 241.817 136.701L4.999 136.701Q4.87628 136.701 4.75371 136.695Q4.63114 136.689 4.50901 136.677Q4.38688 136.665 4.26549 136.647Q4.1441 136.629 4.02374 136.605Q3.90338 136.581 3.78434 136.551Q3.6653 136.521 3.54787 136.485Q3.43043 136.45 3.31489 136.409Q3.19934 136.367 3.08597 136.32Q2.97259 136.273 2.86165 136.221Q2.75072 136.168 2.64249 136.11Q2.53426 136.053 2.429 135.99Q2.32374 135.926 2.2217 135.858Q2.11967 135.79 2.0211 135.717Q1.92253 135.644 1.82767 135.566Q1.73281 135.488 1.64188 135.406Q1.55095 135.323 1.46417 135.237Q1.3774 135.15 1.29499 135.059Q1.21257 134.968 1.13472 134.873Q1.05687 134.778 0.983765 134.68Q0.910662 134.581 0.842483 134.479Q0.774305 134.377 0.711215 134.272Q0.648125 134.166 0.590276 134.058Q0.532426 133.95 0.479957 133.839Q0.427489 133.728 0.380526 133.615Q0.333564 133.501 0.292221 133.386Q0.250879 133.27 0.215255 133.153Q0.179632 133.035 0.149814 132.916Q0.119996 132.797 0.0960544 132.677Q0.0721132 132.557 0.0541066 132.435Q0.0361001 132.314 0.0240715 132.192Q0.012043 132.07 0.00602151 131.947Q0 131.824 0 131.702L0 4.999Q0 4.87628 0.00602151 4.75371Q0.012043 4.63114 0.0240715 4.50901Q0.0361001 4.38688 0.0541066 4.26549Q0.0721132 4.1441 0.0960544 4.02374Q0.119996 3.90338 0.149814 3.78434Q0.179632 3.6653 0.215255 3.54787Q0.250879 3.43043 0.292221 3.31489Q0.333564 3.19934 0.380526 3.08597Q0.427489 2.97259 0.479957 2.86165Q0.532426 2.75072 0.590276 2.64249Q0.648125 2.53426 0.711215 2.429Q0.774305 2.32374 0.842483 2.2217Q0.910662 2.11967 0.983765 2.0211Q1.05687 1.92253 1.13472 1.82767Q1.21257 1.73281 1.29499 1.64188Q1.3774 1.55095 1.46417 1.46417Q1.55095 1.3774 1.64188 1.29499Q1.73281 1.21257 1.82767 1.13472Q1.92253 1.05687 2.0211 0.983765Q2.11967 0.910662 2.2217 0.842483Q2.32374 0.774305 2.429 0.711215Q2.53426 0.648125 2.64249 0.590276Q2.75072 0.532426 2.86165 0.479957Q2.97259 0.427489 3.08597 0.380526Q3.19934 0.333564 3.31489 0.292221Q3.43043 0.250879 3.54787 0.215255Q3.6653 0.179632 3.78434 0.149814Q3.90338 0.119996 4.02374 0.0960544Q4.1441 0.0721132 4.26549 0.0541066Q4.38688 0.0361001 4.50901 0.0240715Q4.63114 0.012043 4.75371 0.00602151Q4.87628 0 4.999 0L4.999 0Z" transform="translate(7.5652184 90.192986)" id="Rectangle" fill="#FFFCFC" fill-rule="evenodd" stroke="#4C9C7A" stroke-width="9" />
    <path d="M0 13.8505L24.145 0L24.145 27.7011L0 13.8505Z" transform="translate(12.932419 76.7279)" id="Triangle" fill="#FFFDFD" fill-rule="evenodd" stroke="none" />
    <path d="M0 0L120.725 86.187L241.45 0" transform="translate(10.248068 90.192986)" id="New-shape" fill="none" fill-rule="evenodd" stroke="#4C9C7A" stroke-width="9" />
    <path d="M241.451 86.1869L120.725 0L0 86.1874" transform="translate(10.247491 136.6008)" id="New-shape-2" fill="#FFFFFF" fill-rule="evenodd" stroke="#4C9C7A" stroke-width="9" />
    <path d="M238.304 86.1869L119.152 0L0 86.1874" transform="translate(11.504272 4.083269)" id="New-shape-3" fill="#FFFDFD" fill-rule="evenodd" stroke="#4C9C7A" stroke-width="10" stroke-linecap="round" />
    <path d="M0 70.7175L0 0L183.77 0L183.77 70.7175" transform="translate(39.758606 39.364822)" id="New-shape-5" fill="#FFFFFF" fill-rule="evenodd" stroke="#4C9C7A" stroke-width="9" />
    <path d="M0 20.1462L30.691 50.3656L88.5318 0" transform="translate(87.10298 65.60076)" id="New-shape-6" fill="none" fill-rule="evenodd" stroke="#4C9C7A" stroke-width="11" stroke-linecap="round" />
    <path d="M34.8761 0L0 25.1828" transform="translate(214.13934 91.83785)" id="New-shape-7" fill="none" fill-rule="evenodd" stroke="#4C9C7A" stroke-width="9" />
    <path d="M0 0L34.8306 25.2331" transform="translate(12.98448 91.77208)" id="New-shape-8" fill="none" fill-rule="evenodd" stroke="#4C9C7A" stroke-width="9" />
    <path d="M20.5167 13.4068L0 26.8135L0 0L20.5167 13.4068Z" transform="translate(226.21349 77.483154)" id="Triangle-2" fill="#FFFFFF" fill-rule="evenodd" stroke="none" />
  </g>
</svg>